inDegrees=no
num_controls=7
num_derivatives=13
num_iterations=34
num_multipliers=7
num_parameters=0
num_slacks=7
num_states=26
objective=0.426634
objective_accelerations=0.058231
objective_balance=0.001143
objective_effort=0.015499
objective_height=0.345773
objective_ligament=0.005989
solver_duration=505.855241
status=Solve_Succeeded
success=true
DataType=double
version=3
OpenSimVersion=4.5
endheader
time	/jointset/ground_pelvis/pelvis_tilt/value	/jointset/ground_pelvis/pelvis_tx/value	/jointset/ground_pelvis/pelvis_ty/value	/jointset/hip_l/hip_flexion_l/value	/jointset/hip_l/hip_adduction_l/value	/jointset/hip_l/hip_rotation_l/value	/jointset/back/lumbar_extension/value	/jointset/patellofemoral_l/patellar_flexion_l/value	/jointset/knee_l/knee_flexion_l/value	/jointset/knee_l/knee_adduction_l/value	/jointset/knee_l/knee_rotation_l/value	/jointset/ankle_l/ankle_angle_l/value	/jointset/subtalar_l/subtalar_angle_l/value	/jointset/ground_pelvis/pelvis_tilt/speed	/jointset/ground_pelvis/pelvis_tx/speed	/jointset/ground_pelvis/pelvis_ty/speed	/jointset/hip_l/hip_flexion_l/speed	/jointset/hip_l/hip_adduction_l/speed	/jointset/hip_l/hip_rotation_l/speed	/jointset/back/lumbar_extension/speed	/jointset/patellofemoral_l/patellar_flexion_l/speed	/jointset/knee_l/knee_flexion_l/speed	/jointset/knee_l/knee_adduction_l/speed	/jointset/knee_l/knee_rotation_l/speed	/jointset/ankle_l/ankle_angle_l/speed	/jointset/subtalar_l/subtalar_angle_l/speed	/forceset/tau_hip_flexion_l	/forceset/tau_hip_adduction_l	/forceset/tau_hip_rotation_l	/forceset/tau_knee_flexion_l	/forceset/tau_ankle_angle_l	/forceset/tau_subtalar_angle_l	/forceset/tau_lumbar_extension	lambda_cid13_p0	lambda_cid13_p1	lambda_cid13_p2	lambda_cid13_p3	lambda_cid13_p4	lambda_cid13_p5	lambda_cid14_p0	/jointset/ground_pelvis/pelvis_tilt/accel	/jointset/ground_pelvis/pelvis_tx/accel	/jointset/ground_pelvis/pelvis_ty/accel	/jointset/hip_l/hip_flexion_l/accel	/jointset/hip_l/hip_adduction_l/accel	/jointset/hip_l/hip_rotation_l/accel	/jointset/back/lumbar_extension/accel	/jointset/patellofemoral_l/patellar_flexion_l/accel	/jointset/knee_l/knee_flexion_l/accel	/jointset/knee_l/knee_adduction_l/accel	/jointset/knee_l/knee_rotation_l/accel	/jointset/ankle_l/ankle_angle_l/accel	/jointset/subtalar_l/subtalar_angle_l/accel	gamma_cid13_p0	gamma_cid13_p1	gamma_cid13_p2	gamma_cid13_p3	gamma_cid13_p4	gamma_cid13_p5	gamma_cid14_p0
1	-0.4500777911764194	-0.001684576270616656	0.5948197453634372	1.697031915077636	-0.3476236223985669	0.1434197177548331	-0.4362950701602449	1.50762070720785	1.507620707207851	0.05111832003717391	-0.1744974461905069	0.434992487260722	0.247397227067494	-0.1332648816276546	0.005509295881685062	0.04313068399967047	-0.01184182145676634	-0.003780545551886151	-0.05447404787878386	-0.002690004543799655	-0.1764558693265249	-0.176455869326525	-0.01932078463809815	-0.0002750748309331336	-0.04695022728515285	-0.03438701609614708	-0.2355698777845957	0.08566824233304109	-0.009833106040015605	-0.2959658068952658	-0.01015728516683776	-0.0191438508307312	0.2065468880588693	-39.70405091729695	26.48825900048875	-17.32240667561662	2.441176942577018	-542.5346925342305	-27.5988624094626	-0.02368365551508014	1.379925698212851	0.2758595489065939	2.006291475040681	-6.598007769892897	-0.2579921599039728	-1.612316393881379	0.01990113172314528	-5.584940187029595	-5.584940187029614	-0.8414586752770603	-0.0291032234727025	-0.8507199511055736	-0.9180035805767015	-4.628154910268814e-09	-1.224678732840684e-07	-4.953241115203052e-08	-9.773212443830245e-09	-6.381846652044624e-09	-1.528079088850367e-07	3.052137804753704e-09
1.01	-0.4513431614938873	-0.001615737117573556	0.5953510397446883	1.696585819404419	-0.3476735892564753	0.1427958926269557	-0.436318768810333	1.505577177734038	1.505577177734071	0.05088255702946152	-0.1744999827115452	0.4344801924215738	0.2470085374143088	-0.1199045274496813	0.008259781778568171	0.06310756794723817	-0.07724942156107063	-0.006191220396922765	-0.07029071707730121	-0.001915783664303821	-0.2322547620407193	-0.2322547620407192	-0.02780476088281913	-0.0002056012067939111	-0.05554457607395145	-0.0433310729177945	-0.2359748147547796	0.08564495505418598	-0.009831100942090635	-0.2949340867374562	-0.01064332973585573	-0.01907864844666821	0.2067992369907082	-39.81004095585437	26.41364990589632	-17.23643802120887	2.381093007087208	-542.3481408585546	-27.54441174359454	-0.0237077601864072	1.299788141399655	0.2748266388793307	1.990291256726661	-6.492952734259207	-0.2293527016656467	-1.566309655648763	0.1262738376660871	-5.578075058372944	-5.578075058372805	-0.8478200989327215	0.02894355795827049	-0.8691755016099665	-0.8795980202873653	-4.479587418199259e-09	-1.532822875910249e-07	-6.744793889518536e-08	-1.756533514637596e-08	-9.728153444180705e-09	-1.868633610240664e-07	3.763034114260613e-09
1.02	-0.4524777886968187	-0.001519356399801837	0.5960814838458363	1.695489484409538	-0.3477470123737989	0.1420139073125512	-0.436330706997282	1.502975517084131	1.502975517084134	0.05056276365924394	-0.1745010303158296	0.4338808774627505	0.2465310089354412	-0.1071162587192687	0.01101760882740898	0.08296062797938011	-0.1418896858077532	-0.008471797436458196	-0.08610608518828664	-0.000337911920653052	-0.2880821045452662	-0.2880821045452659	-0.03612685712206391	2.270852138818385e-05	-0.06435425121647556	-0.0521547812325884	-0.2363797517242696	0.08562166777546414	-0.009829095844420823	-0.2939023665796605	-0.01112937430495937	-0.01901344606243386	0.2070515859232704	-39.91816654488023	26.33637673702976	-17.14657426070197	2.312681476674877	-542.2724208765246	-27.49184762929486	-0.02373400893647497	1.265508608700733	0.2773277792980852	1.981526691955528	-6.444540598368505	-0.2319725988036871	-1.612056176374959	0.180631304554338	-5.590630145100072	-5.590630145100135	-0.8090826741818047	0.002663997335937438	-0.8937852218507615	-0.8939338792059776	-8.241610603657025e-09	-1.837667741233958e-07	-7.735484165198348e-08	-2.021114464716503e-08	-1.867014837788428e-08	-1.968843386028359e-07	1.075148814416705e-09
1.03	-0.4534836661192371	-0.001395158245882548	0.5970101808889139	1.693746520071228	-0.3478428494332439	0.1410738996767056	-0.4363273218326856	1.499815607485781	1.499815607485778	0.05016022878905635	-0.1744993842303647	0.4331929264870792	0.2459657727925532	-0.09377664000884613	0.0138439799106271	0.1027929019505173	-0.2069876317441518	-0.01070104017369945	-0.1018784169892686	0.0006953610024558602	-0.3438877308471562	-0.3438877308471561	-0.04439242319199583	0.0002931093340081713	-0.07321744234518758	-0.06088144535093669	-0.2366271664095478	0.08562813499987604	-0.009805616958465657	-0.2926174293829719	-0.01163349478498629	-0.01892432524562356	0.2070704899073223	-40.00707675258083	26.23243460131144	-17.03770496960181	2.219207980070257	-541.9253959969157	-27.42168665605204	-0.02375383434208835	1.41057497991154	0.2885808892478057	1.986190358465114	-6.585090822043271	-0.2191958082183855	-1.557282565672634	0.01673771048170935	-5.573715885112552	-5.5737158851125	-0.8371605292579655	0.0371883358885415	-0.8798229507756202	-0.8603376287546981	-1.20435377756202e-08	-2.14247894045822e-07	-8.718002374565546e-08	-2.280444074793615e-08	-2.766924217017531e-08	-2.066600664411945e-07	-1.647417930420598e-09
1.04	-0.4543476700590242	-0.001242038557848602	0.598137623193456	1.691344042427402	-0.3479611380594725	0.1399766765461412	-0.4363231914540288	1.496098004221935	1.496098004221932	0.04967466486692796	-0.1744954420942663	0.4324168962216219	0.2453136090183604	-0.07874156219045939	0.01680191565034037	0.1227096802726127	-0.2737923469112534	-0.01296211079232098	-0.1175491841387577	-0.0001888691027141358	-0.3996208376442194	-0.399620837644219	-0.05273266749629057	0.0004819186531697383	-0.08197010916967298	-0.06954030749350451	-0.2368745810947624	0.08563460222439372	-0.009782138072771797	-0.2913324921862772	-0.01213761526499314	-0.01883520442862197	0.2070893938914454	-40.09843557520038	26.12597081164922	-16.92506340416616	2.117056445453156	-541.6915083430588	-27.35411340673673	-0.02377575445210148	1.604600430293584	0.3036407105970752	1.998427562147171	-6.785894444509041	-0.238338175079703	-1.591743246076356	-0.2028693011016269	-5.576126244134703	-5.576126244134677	-0.8240183210543625	-0.01365430135569774	-0.8716803610055113	-0.8803734840498724	-9.08039400120892e-09	-2.499604574104452e-07	-9.915763387173793e-08	-3.572217399791573e-08	-2.445246710489755e-08	-2.501346232547205e-07	-1.689626465272379e-09
